<svg width="21" height="20" fill="none" xmlns="http://www.w3.org/2000/svg"><path fill-rule="evenodd" clip-rule="evenodd" d="M3.19727 3.33333c0-.46023.37309-.83333.83333-.83333 3.75723 0 7.3606 1.49256 10.0173 4.14932 2.6568 2.65677 4.1494 6.26008 4.1494 10.01738 0 .4602-.3731.8333-.8334.8333-.4602 0-.8333-.3731-.8333-.8333 0-3.3152-1.317-6.4947-3.6612-8.83887-2.3442-2.3442-5.52359-3.66116-8.8388-3.66116-.46024 0-.83333-.3731-.83333-.83334Zm0 5.83334c0-.46024.37309-.83334.83333-.83334 2.21014 0 4.32975.87798 5.89256 2.44077 1.56284 1.5628 2.44074 3.6824 2.44074 5.8926 0 .4602-.3731.8333-.8333.8333-.4602 0-.8333-.3731-.8333-.8333 0-1.7681-.70241-3.4638-1.95266-4.7141C7.4944 10.7024 5.79871 10 4.0306 10c-.46024 0-.83333-.3731-.83333-.83333Zm1.66666 5.00003c-.92047 0-1.66666.7462-1.66666 1.6666 0 .9205.74619 1.6667 1.66666 1.6667.92048 0 1.66667-.7462 1.66667-1.6667 0-.9204-.74619-1.6666-1.66667-1.6666Z" fill="#5F7896"/></svg>