<svg width="32" height="32" fill="none" xmlns="http://www.w3.org/2000/svg"><g clip-path="url(#a)"><path fill-rule="evenodd" clip-rule="evenodd" d="M27.523 27.1005C30.2952 24.2235 32 20.3108 32 16c0-8.83656-7.1634-16-16-16C7.16344 0 0 7.16344 0 16c0 4.3108 1.70481 8.2235 4.477 11.1005 1.45341-4.9916 6.0622-8.6392 11.523-8.6392s10.0696 3.6476 11.523 8.6392ZM16 16c2.9455 0 5.3333-2.3878 5.3333-5.3333 0-2.94555-2.3878-5.33337-5.3333-5.33337-2.9455 0-5.3333 2.38782-5.3333 5.33337C10.6667 13.6122 13.0545 16 16 16Z" fill="#36485C"/><circle cx="16" cy="16" r="15.25" stroke="#36485C" stroke-width="1.5"/></g><defs><clipPath id="a"><path fill="#fff" d="M0 0h32v32H0z"/></clipPath></defs></svg>