<svg width="180" height="64" fill="none" xmlns="http://www.w3.org/2000/svg"><path fill-rule="evenodd" clip-rule="evenodd" d="M26.5875 22.9226h16.3619l-13.2348 9.7213 5.0538 15.7232-13.2348-9.7213L8.283 48.3671l5.0697-15.7232L.102051 22.9066l16.361949.016 5.0696-15.73925 5.0539 15.73925Zm38.6465-.001H47.1032v3.416h7.0912v19.2032h3.9168V26.3376h7.1228v-3.416Zm2.5743 6.2414h-3.364v16.3618h3.5693V37.735c0-.9099.1106-1.708.3475-2.4103.2369-.7024.5527-1.2771.9476-1.7559.3948-.463.8528-.8301 1.3898-1.0695.5369-.2395 1.1055-.3672 1.7057-.3672.2526 0 .5053.016.7738.0479.2685.0319.5212.0638.7739.1117v-3.4798c-.0928-.0086-.1811-.0216-.2673-.0344-.0751-.0111-.1487-.022-.2223-.0295-.1579-.0159-.458-.0319-.8686-.0319-.537 0-1.074.1117-1.5952.3192-.5211.2235-.9949.4949-1.4214.8461-.4264.3352-.7896.7343-1.0897 1.1493-.3001.415-.5054.846-.6159 1.293h-.0632V29.163Zm19.0468 16.3778h3.5061V29.179h-3.5693v9.4978c0 .6385-.0632 1.2291-.2053 1.7719-.1422.5427-.3633 1.0216-.6791 1.4047-.3001.3991-.7107.7024-1.2161.9418-.5054.2394-1.1213.3512-1.8794.3512-.9792 0-1.7531-.3033-2.2901-.8939-.5527-.5907-.8212-1.6123-.8212-3.0489V29.163h-3.5693v10.3918c0 2.1549.4738 3.7672 1.4214 4.8367.9476 1.0695 2.4953 1.5962 4.6274 1.5962.9003 0 1.7847-.2554 2.6533-.7502.8687-.4949 1.5162-1.1493 1.9584-1.9794h.0632v2.2827Zm10.771-3.0329c-.6791-.431-1.0739-1.1653-1.1845-2.2188v.0319h-3.6008c.0315.9737.2211 1.8197.5843 2.5221.3633.7023.8686 1.293 1.5004 1.7718.6317.463 1.3898.8141 2.2584 1.0536.8687.2394 1.8163.3512 2.8431.3512.837 0 1.69-.0958 2.542-.2874.853-.1915 1.643-.5108 2.338-.9258.695-.415 1.263-.9737 1.706-1.6442.442-.6864.663-1.5005.663-2.4742 0-.7981-.158-1.4845-.458-2.0272-.3-.5428-.695-.9897-1.185-1.3569-.489-.3671-1.042-.6544-1.674-.862-.631-.2075-1.263-.399-1.911-.5427-.143-.0309-.285-.0619-.426-.0926-.515-.1122-1.021-.2222-1.516-.3224-.632-.1277-1.1848-.2874-1.6744-.4629-.4896-.1916-.8844-.4151-1.1845-.6864-.3001-.2714-.458-.6226-.458-1.0695 0-.3672.1105-.6545.3159-.878.2211-.2235.4738-.3991.7738-.5108.3159-.1117.6318-.1915.9792-.2394.3475-.0479.6475-.0639.9002-.0639.7898 0 1.5008.1437 2.1168.447.615.2873.995.8779 1.168 1.7399h3.727c-.11-.9099-.363-1.692-.773-2.3305-.411-.6386-.916-1.1653-1.532-1.5644-.616-.415-1.311-.7024-2.069-.8779-.758-.1756-1.564-.2714-2.4009-.2714-.7265 0-1.5003.0798-2.3058.2235-.8054.1596-1.532.415-2.1953.7821-.6475.3672-1.2003.8461-1.6267 1.4526-.4264.6066-.6475 1.3409-.6475 2.2348 0 .8301.1421 1.5165.4422 2.0752.2843.5587.6791 1.0216 1.1687 1.3728.4896.3671 1.0424.6544 1.6583.862.6159.2075 1.2635.399 1.9268.5427.117.0259.2335.0519.3495.0778.5263.1172 1.0439.2326 1.5617.3372.632.1277 1.184.2873 1.674.4629.489.1916.884.4151 1.2.7184.316.2873.49.6704.506 1.1333.015.4629-.095.8301-.332 1.1174-.253.2873-.553.5108-.932.6545-.363.1436-.774.2554-1.2.3033-.427.0478-.806.0798-1.137.0798-.9637 0-1.785-.2235-2.4799-.6385ZM110.924 29.163h-2.669v2.7297h2.701v9.6574c.016.6704.094 1.277.205 1.8038.126.5268.332.9578.663 1.3089.316.3512.774.6226 1.343.7982.568.1756 1.326.2713 2.274.2713.395 0 .774-.0159 1.153-.0638.198-.0262.406-.0476.618-.0694.177-.0181.356-.0366.535-.0583v-2.7935c-.253.0639-.506.0958-.758.1117-.253.016-.506.016-.758.016-.411 0-.711-.0479-.948-.1437-.237-.0957-.411-.2394-.521-.4309-.111-.1916-.19-.431-.221-.7024-.032-.2873-.048-.6066-.048-.9897v-8.7476h3.222V29.163h-3.222v-4.9165h-3.569v4.9165Zm12.698 0h-3.38v22.4276h3.57v-8.1729h.063c.284.431.616.8141 1.026 1.1494.395.3352.853.6065 1.327.8141.474.2075.979.3671 1.5.4629.521.0957 1.043.1436 1.564.1436 1.2 0 2.227-.2394 3.111-.7183.885-.4789 1.611-1.1014 2.18-1.8995.568-.7982.995-1.7081 1.279-2.7456.284-1.0216.426-2.0911.426-3.1926 0-1.1972-.158-2.3305-.474-3.3841-.315-1.0535-.773-1.9793-1.405-2.7775-.632-.7981-1.422-1.4207-2.369-1.8676-.948-.4629-2.053-.6864-3.333-.6864-1.058 0-2.021.2075-2.921.6225-.901.4151-1.595 1.0855-2.101 2.0433h-.063V29.163Zm8.813 6.0499c.189.7024.284 1.4207.284 2.155 0 .7183-.079 1.4207-.221 2.1071-.158.6864-.427 1.2929-.79 1.8357-.363.5267-.821.9737-1.39 1.3089-.568.3352-1.247.5108-2.069.5108-.726 0-1.374-.1437-1.926-.4469-.553-.2874-1.027-.6864-1.422-1.1972-.41-.5109-.695-1.1174-.9-1.8198-.205-.7024-.3-1.4686-.3-2.2986 0-1.7559.379-3.1606 1.137-4.2142.758-1.0535 1.895-1.5803 3.396-1.5803.726 0 1.374.1756 1.942.4949.553.3192 1.027.7502 1.406 1.2929.379.5428.663 1.1494.853 1.8517Zm10.155-12.2913h-3.569v3.416h3.569v-3.416Zm0 6.2414h-3.569v16.3778h3.569V29.163Zm6.759-6.2414h-3.569v22.6192h3.569V22.9216Zm7.486 22.4117c1.011.431 2.164.6544 3.459.6544s2.448-.2234 3.459-.6544c1.011-.431 1.879-1.0216 2.574-1.7879.695-.7662 1.232-1.676 1.595-2.7296.364-1.0535.553-2.2188.553-3.4798 0-1.2451-.189-2.3945-.553-3.448-.363-1.0535-.9-1.9634-1.595-2.7296-.71-.7503-1.563-1.3568-2.574-1.7878-1.011-.431-2.164-.6545-3.459-.6545s-2.448.2235-3.459.6545c-1.01.431-1.879 1.0216-2.574 1.7878-.695.7662-1.232 1.6761-1.595 2.7296s-.553 2.2029-.553 3.448c0 1.261.19 2.4263.553 3.4798.363 1.0536.9 1.9634 1.595 2.7296.711.7503 1.564 1.3569 2.574 1.7879Zm5.528-2.7137c-.584.3352-1.279.5108-2.069.5108s-1.484-.1596-2.069-.5108c-.584-.3352-1.058-.7822-1.437-1.3249s-.663-1.1653-.837-1.8517c-.174-.6864-.269-1.3887-.269-2.107 0-.7024.095-1.3888.269-2.0912.189-.7023.458-1.3089.837-1.8516.379-.5268.853-.9738 1.437-1.309.585-.3352 1.279-.5108 2.069-.5108s1.485.1756 2.069.5108c.584.3352 1.058.7662 1.437 1.309.379.5427.664 1.1493.837 1.8516.174.7024.269 1.3888.269 2.0912 0 .7183-.095 1.4206-.269 2.107-.189.6864-.458 1.309-.837 1.8517-.379.5427-.853.9897-1.437 1.3249Zm9.855-13.4566h-2.669v2.7297h2.701v9.6574c.016.6704.094 1.277.205 1.8038.126.5268.332.9578.663 1.3089.316.3512.774.6226 1.343.7982.568.1756 1.326.2713 2.274.2713.395 0 .774-.0159 1.153-.0638.198-.0262.406-.0476.618-.0694.177-.0181.356-.0366.535-.0583v-2.7935c-.253.0639-.506.0958-.758.1117-.253.016-.506.016-.758.016-.411 0-.711-.0479-.948-.1437-.237-.0957-.411-.2394-.521-.4309-.111-.1916-.19-.431-.221-.7024-.032-.2873-.048-.6066-.048-.9897v-8.7476h3.222V29.163h-3.222v-4.9165h-3.569v4.9165Z" fill="#fff"/></svg>