<svg width="93" height="64" fill="none" xmlns="http://www.w3.org/2000/svg"><g clip-path="url(#a)"><path fill-rule="evenodd" clip-rule="evenodd" d="M24.1802 20.897h4.2311v26.1223h-4.2311V20.897Zm18.9479 17.8421c0 4.0471-3.3113 4.4151-4.415 4.4151-2.5755 0-2.9434-2.3915-2.9434-3.6792V29.3572h-4.231v9.9338c0 2.3915.7358 4.599 2.2075 5.8867 1.2877 1.2877 2.9433 1.8396 4.9669 1.8396 1.4717 0 3.3113-.3679 4.415-1.4717v1.4717h4.2311V29.3572h-4.2311v9.3819Zm8.278-15.8199h4.2311v6.4386h3.1273v4.0471h-3.1273v13.613h-4.2311v-13.613h-3.1273v-4.0471h3.1273v-6.4386Zm20.6035 18.7652c-.9198.7359-2.2076 1.2878-3.4953 1.2878-2.9433 0-4.9669-2.2076-4.9669-5.1509 0-2.9434 2.0236-4.9669 4.9669-4.9669 1.2877 0 2.5755.3679 3.4953 1.2877l.5518.5519 2.9434-2.7594-.7358-.5519c-1.6557-1.4717-3.8632-2.3915-6.2547-2.3915-5.1509 0-9.014 3.8632-9.014 9.014 0 5.1509 3.8631 9.0141 9.014 9.0141 2.3915 0 4.599-.9198 6.2547-2.3915l.7358-.5519-2.9434-2.9433-.5518.5518Zm13.7967-12.6932c2.0235 0 3.3113.5519 4.599 1.8396s1.8396 3.4953 1.8396 5.8867v10.1178h-4.2311V36.5336c0-.0769.0007-.1577.0014-.2418v-.0013c.0108-1.3231.028-3.4361-2.3929-3.4361-1.1037 0-3.8631.3679-3.8631 4.415v9.7499h-4.2311V20.897h4.2311v9.5659c1.1037-1.1038 2.5754-1.4717 4.0471-1.4717ZM68.3305 40.95c1.6255 0 2.9433-1.3178 2.9433-2.9434s-1.3178-2.9434-2.9433-2.9434c-1.6256 0-2.9434 1.3178-2.9434 2.9434s1.3178 2.9434 2.9434 2.9434Zm-56.1077 2.0231c2.3915 0 4.599-.9198 6.0707-2.3915l.5518-.5519 2.7594 2.7594-.5518.5519c-2.2076 2.3915-5.5188 3.6792-8.8301 3.6792-6.80654 0-11.957419-5.5188-11.957419-12.6932 0-7.1745 5.150879-12.6933 12.141319-12.5093 3.3113 0 6.4386 1.2877 8.8301 3.6792l.5519.5519-2.7594 2.7594-.5519-.5519c-1.6556-1.6556-3.8631-2.5754-6.0707-2.5754-4.78292 0-8.0942 3.6792-8.0942 8.6461 0 4.9669 3.31128 8.6461 7.9103 8.6461Z" fill="#fff"/></g><defs><clipPath id="a"><path fill="#fff" transform="translate(.265381)" d="M0 0h92.7347v64H0z"/></clipPath></defs></svg>