<svg width="139" height="49" fill="none" xmlns="http://www.w3.org/2000/svg"><path fill-rule="evenodd" clip-rule="evenodd" d="M21.0487 17.7502H33.614l-10.1638 7.4656 3.8811 12.0748-10.1638-7.4656-10.17588 7.4656 3.89328-12.0748L.708984 17.7379l12.565316.0123 3.8932-12.08711 3.8812 12.08711Zm29.6791-.0009H36.8041v2.6233h5.4458v14.7473h3.0079V20.3726h5.47v-2.6233Zm1.977 4.7931h-2.5834v12.5652h2.7411v-5.9822c0-.6988.0849-1.3117.2668-1.8511.1819-.5394.4245-.9807.7277-1.3485.3032-.3555.655-.6374 1.0673-.8213.4124-.1839.849-.2819 1.3099-.2819.1941 0 .3881.0122.5943.0367.2062.0246.4003.0491.5943.0858v-2.6724c-.0712-.0065-.139-.0166-.2052-.0264-.0577-.0085-.1142-.0169-.1708-.0226-.1212-.0123-.3517-.0245-.667-.0245-.4124 0-.8248.0858-1.225.2452-.4003.1716-.7641.38-1.0916.6497-.3275.2574-.6064.5639-.8369.8826-.2304.3187-.3881.6497-.473.993h-.0485v-2.4273Zm14.6271 12.5775h2.6926V22.5547h-2.7411v7.2939c0 .4904-.0485.944-.1577 1.3608-.1091.4168-.2789.7845-.5215 1.0787-.2304.3065-.5458.5394-.9339.7233-.3881.1839-.8611.2697-1.4433.2697-.752 0-1.3463-.2329-1.7586-.6865-.4245-.4536-.6307-1.2381-.6307-2.3414v-7.7108h-2.7411v7.9805c0 1.6549.3638 2.893 1.0916 3.7144.7277.8213 1.9163 1.2258 3.5537 1.2258.6913 0 1.3705-.1961 2.0376-.5761.667-.38 1.1643-.8827 1.5039-1.5201h.0485v1.753Zm8.2718-2.3292c-.5216-.331-.8248-.8949-.9097-1.7039v.0245h-2.7653c.0243.7478.1698 1.3975.4488 1.9369.2789.5393.667.9929 1.1522 1.3607.4851.3555 1.0673.6252 1.7344.8091.6671.1838 1.3948.2697 2.1831.2697.6428 0 1.2978-.0736 1.9527-.2207.655-.1471 1.2614-.3923 1.7951-.711.5336-.3187.9703-.7478 1.3099-1.2627.3396-.5271.5094-1.1523.5094-1.9001 0-.6129-.1213-1.14-.3517-1.5568-.2305-.4168-.5337-.7601-.9097-1.042-.376-.282-.8005-.5026-1.2856-.662-.4852-.1594-.9703-.3065-1.4676-.4168-.1097-.0237-.2189-.0475-.3275-.0712-.3956-.0861-.7837-.1706-1.1643-.2475-.4852-.0981-.9097-.2207-1.2857-.3555-.376-.1471-.6792-.3187-.9096-.5271-.2305-.2084-.3517-.4781-.3517-.8214 0-.2819.0849-.5026.2425-.6742.1698-.1716.3639-.3065.5943-.3923.2426-.0858.4852-.1471.752-.1839.2668-.0367.4973-.049.6913-.049.6065 0 1.1523.1103 1.6253.3432.473.2207.7641.6743.8975 1.3362h2.8624c-.0849-.6987-.279-1.2994-.5943-1.7897-.3154-.4904-.7035-.8949-1.1765-1.2014-.473-.3187-1.0067-.5394-1.5889-.6742-.5821-.1349-1.2007-.2084-1.8435-.2084-.5579 0-1.1522.0613-1.7708.1716-.6186.1226-1.1765.3187-1.6859.6007-.4973.2819-.9218.6497-1.2492 1.1155-.3275.4659-.4973 1.0298-.4973 1.7163 0 .6374.1091 1.1645.3396 1.5936.2183.429.5215.7845.8975 1.0542.376.282.8005.5026 1.2735.662.473.1594.9703.3065 1.4797.4168.0898.0199.1792.0399.2683.0597.4042.0901.8017.1787 1.1993.259.4851.0981.9096.2207 1.2856.3555.376.1471.6792.3188.9218.5517.2426.2206.376.5148.3881.8704.0121.3555-.0728.6374-.2547.8581-.1941.2206-.4245.3922-.7156.5026-.2789.1103-.5943.1961-.9218.2329-.3274.0368-.6185.0613-.8732.0613-.7399 0-1.3706-.1716-1.9042-.4904ZM85.816 22.5424h-2.0497v2.0963h2.074v7.4165c.0121.5149.0727.9807.1576 1.3852.0971.4046.2547.7356.5094 1.0053.2426.2697.5943.478 1.031.6129.4366.1348 1.0188.2084 1.7465.2084.3032 0 .5943-.0123.8854-.049.1524-.0201.312-.0366.4749-.0533.1353-.014.2729-.0281.4105-.0448v-2.1453c-.1941.049-.3881.0736-.5822.0858-.1941.0123-.3881.0123-.5822.0123-.3153 0-.5458-.0368-.7277-.1103-.1819-.0736-.3153-.1839-.4002-.331-.0849-.1471-.1456-.331-.1698-.5394-.0243-.2207-.0364-.4658-.0364-.7601v-6.7177h2.4742v-2.0718h-2.4742v-3.7757H85.816v3.7757Zm9.7514 0h-2.5955v17.2235h2.7411v-6.2764h.0485c.2183.331.473.6252.7884.8826.3032.2574.6549.4658 1.0188.6252.3638.1594.7519.282 1.1522.3555.4002.0736.8005.1103 1.2007.1103.9214 0 1.7104-.1838 2.3894-.5516.679-.3678 1.237-.8459 1.674-1.4588.436-.6129.764-1.3117.982-2.1085.218-.7846.328-1.6059.328-2.4517 0-.9195-.122-1.7898-.364-2.5989-.243-.8091-.595-1.5201-1.08-2.133-.485-.613-1.091-1.091-1.819-1.4343-.728-.3555-1.577-.5271-2.5592-.5271-.8126 0-1.5524.1594-2.2437.4781-.6914.3187-1.225.8336-1.6132 1.5691h-.0485v-1.704Zm6.7676 4.6461c.146.5394.219 1.091.219 1.6549 0 .5517-.061 1.091-.17 1.6182-.122.5271-.328.9929-.607 1.4097-.279.4046-.63.7478-1.067 1.0052-.437.2575-.9582.3923-1.5889.3923-.5579 0-1.0552-.1103-1.4797-.3432-.4245-.2207-.7883-.5272-1.0915-.9194-.3154-.3923-.5337-.8581-.6914-1.3975-.1577-.5394-.2304-1.1278-.2304-1.7653 0-1.3484.2911-2.4272.8732-3.2363.5822-.8091 1.4555-1.2136 2.6077-1.2136.5579 0 1.055.1348 1.492.38.424.2452.788.5762 1.079.993.291.4168.51.8826.655 1.422Zm7.799-9.4392h-2.741v2.6233h2.741v-2.6233Zm0 4.7931h-2.741v12.5775h2.741V22.5424Zm5.191-4.7931h-2.741v17.3706h2.741V17.7493Zm5.749 17.2112c.776.331 1.662.5026 2.656.5026.995 0 1.88-.1716 2.656-.5026.777-.331 1.444-.7845 1.977-1.373.534-.5884.946-1.2871 1.225-2.0962.279-.8091.425-1.704.425-2.6724 0-.9562-.146-1.8388-.425-2.6479-.279-.8091-.691-1.5078-1.225-2.0962-.545-.5762-1.2-1.042-1.977-1.373-.776-.331-1.661-.5026-2.656-.5026-.994 0-1.88.1716-2.656.5026-.776.331-1.443.7846-1.977 1.373s-.946 1.2871-1.225 2.0962c-.279.8091-.424 1.6917-.424 2.6479 0 .9684.145 1.8633.424 2.6724.279.8091.691 1.5078 1.225 2.0962.546.5762 1.201 1.042 1.977 1.373Zm4.245-2.084c-.449.2575-.982.3923-1.589.3923-.606 0-1.14-.1226-1.589-.3923-.448-.2574-.812-.6006-1.103-1.0174-.292-.4168-.51-.8949-.643-1.422-.134-.5272-.206-1.0666-.206-1.6182 0-.5394.072-1.0665.206-1.6059.145-.5394.351-1.0052.643-1.422.291-.4045.655-.7478 1.103-1.0052.449-.2575.983-.3923 1.589-.3923.607 0 1.14.1348 1.589.3923.449.2574.813.5884 1.104 1.0052.291.4168.509.8826.643 1.422.133.5394.206 1.0665.206 1.6059 0 .5516-.073 1.091-.206 1.6182-.146.5271-.352 1.0052-.643 1.422-.291.4168-.655.76-1.104 1.0174Zm7.568-10.3341h-2.049v2.0963h2.074v7.4165c.012.5149.072.9807.157 1.3852.097.4046.255.7356.51 1.0053.242.2697.594.478 1.031.6129.436.1348 1.018.2084 1.746.2084.303 0 .594-.0123.885-.049.153-.0201.312-.0366.475-.0533.136-.014.273-.0281.411-.0448v-2.1453c-.194.049-.388.0736-.582.0858-.194.0123-.388.0123-.582.0123-.316 0-.546-.0368-.728-.1103-.182-.0736-.316-.1839-.4-.331-.085-.1471-.146-.331-.17-.5394-.025-.2207-.037-.4658-.037-.7601v-6.7177h2.475v-2.0718h-2.475v-3.7757h-2.741v3.7757Z" fill="#fff"/></svg>