<svg width="134" height="64" fill="none" xmlns="http://www.w3.org/2000/svg"><g clip-path="url(#a)"><path fill-rule="evenodd" clip-rule="evenodd" d="M21.5815 18.5129c0-2.2707 1.7476-4.0986 3.9184-4.0986s3.9184 1.8279 3.9184 4.0986v10.0885c0 2.2707-1.7476 4.0986-3.9184 4.0986s-3.9184-1.8279-3.9184-4.0986V18.5129Zm51.5093 27.0055-3.587-.0066-.0014.0002c-.3775-.0131-.5683-.1879-.61-.5473-.0417-.3595-.1714-19.3486.0215-27.5851.0007-.1461.1052-.272.2508-.3021.7896-.201 3.2529-.2288 4.1173-.1144.1911.0244.3124.1274.3239.4052.1363 3.1937.2295 23.4306.0135 27.6812-.0029.0653-.0189.1294-.0471.1885-.0282.059-.0681.1118-.1171.1551-.1001.0884-.2311.1334-.3644.1253Zm-14.747-20.231c-5.0198 0-7.779 2.5976-7.779 6.319l.0305-.003c0 3.8602 3.1415 5.1246 7.0476 5.8482 2.4303.454 3.9679 1.0799 3.9893 2.1532.0251 1.2188-1.1485 1.9407-3.0883 1.9864l-.5035-.0032c-2.1709-.0719-4.0259-1.1843-5.1629-1.8787-.3243-.1993-.9508-.1489-1.1885.1698-.4274.4903-.9692 1.4245-1.2918 2.2382-.2808.6305.2445 1.1566.291 1.1957 1.3795 1.1714 3.9523 2.3738 7.5794 2.4456 5.4852.0963 8.3109-3.0419 8.3109-6.5133 0-4.0873-3.055-5.2521-7.0975-5.9331-2.1727-.3648-3.9646-.8221-3.9314-2.0898.0039-.1897.0451-.3805.1215-.5717.379-.9621 1.4494-1.4 2.7326-1.4278.3788-.0081.7527.0113 1.1102.0489 1.3822.1447 2.8996.902 3.8744 1.3886l.1149.0573c.2659.134.7862.1816.9906-.1894l1.1055-2.2724c.168-.3876.0277-.838-.3326-1.0668-1.3579-.9411-3.8645-1.9017-6.9229-1.9017Zm22.3771 14.5051c.0732-2.1156 2.598-2.8556 5.3523-2.8915l-.0004.0017c.7379.0293 1.1718.1045 1.757.3461.118.0477.3855.3021.3888.433.0134.6257-.0199 2.0876-.2526 2.4797-.6267 1.054-2.0496 1.8495-3.9145 2.0258-1.9461.1078-3.3306-.7172-3.3306-2.3948Zm4.1003-14.2139c-4.0892-.0931-6.624 1.6695-7.9122 2.8017l-.0063-.0324c-.1662.147-.2961.3808-.2045.6617.0916.2808 1.2816 2.0358 1.7536 2.6366.0966.1225.3939.2025.5851.0932.0848-.0487.1822-.106.2903-.1696.9261-.5445 2.6456-1.5556 4.1013-1.6682.4229-.03.8477-.0189 1.2683.0327 2.0444.2499 3.0167 1.1729 3.2662 2.3197.0995.451.1228 1.4001.1162 1.8982-.0032.1504-.2244.2123-.3324.17-1.6922-.6617-3.9293-.9198-5.9141-.629-3.0984.4543-5.919 2.3834-5.929 6.2926-.0098 3.8178 3.3143 5.7454 6.6488 5.7454 2.1943 0 4.2585-.6535 5.5184-1.9605.0501-.0326.2445-.0392.2494.1633l.0282 1.0096c.0067.2432.0617.4735.5353.4963l3.8664-.0082c.0579.0102.1175.0065.1737-.0109.0562-.0175.1074-.0481.1494-.0893.0844-.0833.122-.2022.1006-.318.0462-1.6958.2256-8.5043.1175-10.9451-.2641-5.9053-3.1014-8.3803-8.4702-8.4898Zm20.3198-.0346c-6.2779.0425-10.144 4.6426-10.1108 10.0957l-.0149-.0196c.0317 5.4725 3.4125 10.1837 10.2277 10.1349 3.254-.0181 5.714-1.3495 6.988-2.9338.111-.1373.34-.4804.033-.8302-.471-.6156-1.317-1.5305-1.907-2.1235-.301-.232-.573-.3429-.836-.1176-.823.7434-2.382 1.6515-3.989 1.6123-3.092-.0703-5.229-2.042-5.253-5.6359-.026-3.7428 2.225-5.7783 5.243-5.7783 1.664 0 3.356.7125 4.245 1.2957.045.0292.089.0597.132.0897.264.1846.5.3491.719.0738.667-.871 1.258-1.798 1.765-2.7707.072-.1944.122-.3561.022-.5489-.502-.8234-3.348-2.5679-7.264-2.5436Zm27.185 19.2471c-1.048.2351-4.463.6992-4.782.7222l-.011.0286c-.16.005-.37-.0049-.549-.2565l-2.382-3.3828c-.49-.7139-.995-1.4599-1.46-2.147l-.002-.0037-.002-.0034-.001-.0014-.001-.0002c-.762-1.1267-1.416-2.0934-1.72-2.4967-.1-.1338-.256-.1405-.356-.0458l-1.732 1.7842c-.083.0686-.133.3265-.133.3265l-.073 5.8159s-.06.3381-.549.3381c-.994.018-3.12.0211-3.979-.0277-.215-.0153-.383-.1899-.386-.4019-.119-3.0322-.402-24.7018-.203-27.6536.051-.2426.246-.43.494-.4738l3.915.0083c.168.0078.467.1923.473.4375l.161 15.6907c.002.351.145.4052.394.1603l7.496-7.3107c.343-.3266.792-.3544 1.164-.2776.883.1847 2.435.536 3.396.8168.496.1456.848.415.263 1.0358l-6.493 6.3974c-.133.1306-.139.2938-.016.4574l3.548 4.4711 3.735 5.5053c.144.2139.051.4279-.209.4867ZM11.1326 39.4128c0-2.2707 1.7476-4.0986 3.9183-4.0986 2.1708 0 3.9184 1.8279 3.9184 4.0986v10.0885c0 2.2706-1.7476 4.0986-3.9184 4.0986-2.1707 0-3.9183-1.828-3.9183-4.0986V39.4128Zm10.4489-.1802c0 2.1708 1.8281 3.9183 4.0987 3.9183h10.0887c2.2707 0 4.0986-1.7475 4.0986-3.9183s-1.828-3.9184-4.0986-3.9184H25.6802c-2.2707 0-4.0987 1.7476-4.0987 3.9184ZM.683594 28.7826c0 2.1708 1.827916 3.9184 4.098606 3.9184h10.0885c2.2707 0 4.0986-1.7476 4.0986-3.9184s-1.8279-3.9183-4.0986-3.9183H4.7822c-2.27069 0-4.098606 1.7475-4.098606 3.9183ZM21.5815 49.6789c0 2.1707 1.7476 3.9183 3.9184 3.9183s3.9184-1.7476 3.9184-3.9183c0-2.1708-1.7476-3.9184-3.9184-3.9184h-3.9184v3.9184Zm10.449-16.9779h3.9184c2.1708 0 3.9184-1.7476 3.9184-3.9184s-1.7476-3.9183-3.9184-3.9183-3.9184 1.7475-3.9184 3.9183v3.9184ZM4.60196 35.3142h3.91837v3.9184c0 2.1708-1.74759 3.9183-3.91837 3.9183-2.17077 0-3.918366-1.7475-3.918366-3.9183s1.747596-3.9184 3.918366-3.9184ZM18.9693 22.251v-3.9183c0-2.1708-1.7476-3.9184-3.9183-3.9184-2.1708 0-3.9184 1.7476-3.9184 3.9184 0 2.1707 1.7476 3.9183 3.9184 3.9183h3.9183Z" fill="#fff"/></g><defs><clipPath id="a"><path fill="#fff" transform="translate(.0305176 .653076)" d="M0 0h133.224v62.6939H0z"/></clipPath></defs></svg>