<svg width="19" height="20" fill="none" xmlns="http://www.w3.org/2000/svg"><path d="M18.8641 10.0335c0-5.08118-4.1041-9.200328-9.16667-9.200328C4.63482.833172.530762 4.95232.530762 10.0335c0 4.3148 2.959548 7.9352 6.952218 8.9295v-6.118H5.59274v-2.8115h1.89024V8.82206c0-3.1315 1.41196-4.58295 4.47512-4.58295.5807 0 1.5828.11427 1.9927.22857v2.54865c-.2164-.02286-.5921-.0343-1.059-.0343-1.5031 0-2.0838.57145-2.0838 2.0572v.99427h2.9941l-.5143 2.8115H10.808v6.3215c4.5388-.5502 8.0561-4.4291 8.0561-9.133Z" fill="#5F7896"/></svg>