<svg width="55" height="50" fill="none" xmlns="http://www.w3.org/2000/svg"><path d="M5.50296 25.2285c0 4.4158 3.54088 8.0077 7.90594 8.0077h7.3852c.4631 0 .8237-.4414.8237-.8309V17.7312c.0004-.4457.1755-.8731.4866-1.1883.3112-.3152.7332-.4924 1.1733-.4929.288-.0003.5712.0754.8215.2198.2503.1444.459.3524.6057.6035L33.982 33.074c.079.1289.1972.2284.3368.2835.1397.055.2931.0627.4374.0218.1443-.0409.2716-.1281.3627-.2485.0912-.1204.1413-.2676.1428-.4193V17.7312c.0004-.4457.1754-.8731.4866-1.1883.3112-.3152.7331-.4924 1.1732-.4929.2881-.0003.5712.0754.8215.2198.2503.1444.4591.3524.6058.6035l9.2678 16.1996c.079.1289.1972.2283.3367.2834.1396.0551.293.0628.4373.022.1442-.0408.2715-.1279.3627-.2483.0912-.1203.1413-.2674.143-.4191V13.289h-2.9107v11.5605l-5.4447-9.4903c-.7698-1.333-2.2297-2.175-3.7839-2.175-2.4339 0-4.4125 2.0001-4.4125 4.4654V24.85l-5.4448-9.4902c-.7719-1.3325-2.2318-2.1739-3.7844-2.1739-2.4339 0-4.4125 2.0001-4.4125 4.4653v11.8297c.0017.4304-.3181.8056-.7833.8067h-4.4888c-1.3248 0-2.5954-.5331-3.53223-1.4819-.93682-.9489-1.46311-2.2358-1.46311-3.5777 0-1.3419.52629-2.6288 1.46311-3.5777.93683-.9489 2.20743-1.4819 3.53223-1.4819h3.7599v-2.9475h-3.7915c-4.34981 0-7.89614 3.5864-7.89614 8.0076ZM49.8648 13.2901V32.712c-.0004.4458-.1754.8732-.4866 1.1883-.3112.3152-.7331.4925-1.1732.4929-.288.0005-.5711-.0752-.8214-.2195-.2503-.1443-.4591-.3521-.6059-.6031l-9.2689-16.2008c-.079-.1288-.1972-.2283-.3367-.2834-.1396-.055-.293-.0628-.4372-.022-.1443.0409-.2716.128-.3628.2483-.0912.1203-.1413.2674-.143.4191V32.712c-.0004.4458-.1754.8732-.4866 1.1883-.3112.3152-.7331.4925-1.1732.4929-.2886.0005-.5722-.0757-.8227-.2209-.2504-.1452-.4589-.3544-.6046-.6067l-9.2765-16.1958c-.1183-.2041-.3498-.331-.59-.331-.1827.0006-.3578.0744-.487.2052-.1292.1309-.2021.3082-.2027.4933v14.668c0 .9655-.8378 1.8136-1.7933 1.8136h-7.3841c-2.3534-.0023-4.60976-.9503-6.27387-2.6358-1.66411-1.6855-2.60001-3.9709-2.60232-6.3546.00231-2.3836.93821-4.669 2.60232-6.3545 1.66411-1.6855 3.92047-2.6335 6.27387-2.6358h3.7915v-2.9481h-3.7817c-6.50978 0-11.78734 5.3449-11.78734 11.939S6.90297 37.168 13.4182 37.168h7.4555c2.824.0017 4.6402-1.6745 4.6304-4.766v-6.8099l5.4448 9.4903c.7697 1.333 2.2296 2.175 3.7838 2.175 2.434 0 4.4125-2.0001 4.4125-4.4648v-7.2005l5.4448 9.4903c.7703 1.333 2.2302 2.175 3.7838 2.175 2.434 0 4.4125-2.0001 4.4125-4.4648V13.2901h-2.9215Z" fill="#fff"/></svg>