<svg width="80" height="49" fill="none" xmlns="http://www.w3.org/2000/svg"><path d="M19.6976 23.2574h-9.2453v2.7317h6.5518c-.3276 3.8609-3.5307 5.5-6.5518 5.5-3.85834 0-7.24345-3.0596-7.24345-7.3212 0-4.1522 3.20312-7.3575 7.24345-7.3575 3.0939 0 4.9502 1.9668 4.9502 1.9668l1.9292-2.0033s-2.4751-2.7317-6.9522-2.7317C4.66481 14.0786.224121 18.9229.224121 24.1315c0 5.1358 4.149499 10.1258 10.300979 10.1258 5.387 0 9.3545-3.7152 9.3545-9.1788 0-1.1655-.182-1.8211-.182-1.8211Zm7.5711-1.9669c-3.7856 0-6.5155 2.9503-6.5155 6.447 0 3.4966 2.6208 6.5198 6.5519 6.5198 3.5307 0 6.4426-2.7318 6.4426-6.447.0364-4.3344-3.3487-6.5198-6.479-6.5198Zm.0364 2.5496c1.8563 0 3.6399 1.4934 3.6399 3.9338 0 2.3675-1.7472 3.9337-3.6399 3.9337-2.0748 0-3.7128-1.639-3.7128-3.9337 0-2.2583 1.638-3.9338 3.7128-3.9338Zm14.1228-2.5496c-3.7855 0-6.5154 2.9503-6.5154 6.447 0 3.4966 2.6207 6.5198 6.5518 6.5198 3.5307 0 6.4426-2.7318 6.4426-6.447.0364-4.3344-3.3487-6.5198-6.479-6.5198Zm.0364 2.5496c1.8564 0 3.6399 1.4934 3.6399 3.9338 0 2.3675-1.7471 3.9337-3.6399 3.9337-2.0747 0-3.7127-1.639-3.7127-3.9337.0364-2.2583 1.638-3.9338 3.7127-3.9338Zm13.8681-2.5496c-3.4944 0-6.2243 3.0596-6.2243 6.4834 0 3.8973 3.1667 6.4834 6.1515 6.4834 1.8563 0 2.8391-.7285 3.5671-1.5662v1.2748c0 2.2218-1.3468 3.5695-3.4215 3.5695-1.9656 0-2.9848-1.4569-3.3124-2.2947l-2.4751 1.0563c.8736 1.8576 2.6571 3.8245 5.8239 3.8245 3.4579 0 6.115-2.1854 6.115-6.7748V21.6911h-2.7299v1.0927c-.8372-.9105-1.9656-1.4933-3.4943-1.4933Zm.2548 2.5496c1.7107 0 3.4579 1.457 3.4579 3.9338 0 2.5496-1.7472 3.9337-3.4943 3.9337-1.8564 0-3.5672-1.4933-3.5672-3.8973-.0364-2.5132 1.7836-3.9702 3.6036-3.9702Zm18.0175-2.586c-3.2759 0-6.0422 2.6225-6.0422 6.4834 0 4.0794 3.0575 6.5198 6.3698 6.5198 2.7299 0 4.4407-1.4934 5.4235-2.8411l-2.2568-1.4933c-.5824.9106-1.5651 1.7847-3.1667 1.7847-1.8199 0-2.6571-.9834-3.1667-1.9668l8.6994-3.606-.4368-1.0563c-.8736-2.0761-2.8392-3.8244-5.4235-3.8244Zm.1092 2.5132c1.2012 0 2.0384.6192 2.4023 1.3841l-5.7874 2.4404c-.2548-1.8941 1.5288-3.8245 3.3851-3.8245ZM63.4494 33.8566h2.8391v-19.086h-2.8391v19.086Z" fill="#fff"/></svg>