<svg width="40" height="40" fill="none" xmlns="http://www.w3.org/2000/svg"><path fill-rule="evenodd" clip-rule="evenodd" d="M10.9095 7.32128c.3625-.62977.8669-1.16529 1.4725-1.5633l4.3179-2.47426c1.1453-.66549 2.0869-.11949 2.0869 1.21151V18.4878c0 1.3311-.9416 1.8771-2.0869 1.2116l-4.3179-2.5596c-.6056-.398-1.11-.9335-1.4725-1.5633-.3624-.6298-.5728-1.3364-.6143-2.0629V9.38412c.0415-.72651.2519-1.43307.6143-2.06284ZM9.91003 17.557c.70257 0 1.39527.1637 2.02217.4777l4.2009 2.3824c1.1121.6364 1.1121 1.6726 0 2.309L4.43649 29.4165c-1.11197.6364-2.02633.1142-2.02633-1.1586v-4.7975c.04027-.6947.24461-1.3704.59653-1.9726.35198-.6023.8417-1.1143 1.4298-1.4949l3.45134-1.9582c.62692-.314 1.31965-.4777 2.0222-.4777ZM27.6177 5.75798c.6057.39801 1.11.93353 1.4724 1.5633.3625.62977.573 1.33633.6144 2.06284v4.12948c-.0414.7265-.2519 1.4331-.6144 2.0629-.3624.6298-.8667 1.1653-1.4724 1.5633l-4.3264 2.5596c-1.1452.6655-2.0784.1195-2.0784-1.2116V4.49523c0-1.331.9332-1.877 2.0784-1.21151l4.3264 2.47426ZM29.7814 17.557c-.7323 0-1.4542.1637-2.1076.4777l-4.3785 2.3824c-1.159.6364-1.159 1.6726 0 2.309l12.1909 6.6904c1.159.6364 2.1033.1142 2.1033-1.1586v-4.7975c-.0403-.6941-.2517-1.3696-.617-1.9719-.3653-.6023-.8744-1.1146-1.4863-1.4956l-3.5972-1.9582c-.6534-.314-1.3754-.4777-2.1076-.4777ZM9.87411 35.8827c.62729.3136 1.32039.477 2.02329.477.703 0 1.3961-.1634 2.0234-.477l3.4533-1.9637c.5876-.3823 1.0762-.8954 1.4269-1.4982s.5535-1.2785.5923-1.9728v-4.7911c0-1.2711-.9066-1.7926-2.0192-1.157L5.67078 31.1813c-1.11263.6355-1.11263 1.6703 0 2.3059l4.20333 2.3955Zm10.74369-3.4634c-.3652-.6009-.5768-1.2748-.6179-1.9674v-4.796c0-1.2702.9444-1.7913 2.1034-1.1562l12.1909 6.6769c1.1589.6351 1.1589 1.6693 0 2.3044l-4.3785 2.402c-.6534.3135-1.3754.4767-2.1076.4767-.7322 0-1.4542-.1632-2.1076-.4767l-3.5972-1.9705c-.6114-.3808-1.1201-.8921-1.4855-1.4932Z" fill="#36485C"/></svg>