<svg width="72" height="64" fill="none" xmlns="http://www.w3.org/2000/svg"><path d="M7.88898 32.6603c0 5.75 4.61082 10.4272 10.29482 10.4272h9.6166c.603 0 1.0726-.5748 1.0726-1.082V22.8977c.0005-.5804.2284-1.1369.6337-1.5473.4052-.4104.9546-.6413 1.5277-.6418.375-.0005.7437.0981 1.0697.2861.3259.188.5978.4589.7888.7858l12.0802 21.0958c.1029.1679.2568.2974.4386.3691.1818.0717.3816.0817.5695.0285.1879-.0533.3536-.1668.4723-.3236.1187-.1569.1839-.3485.1859-.546V22.8977c.0005-.5804.2284-1.1369.6336-1.5473.4053-.4104.9547-.6413 1.5278-.6418.375-.0005.7437.0981 1.0697.2861.3259.188.5978.4589.7887.7858l12.0682 21.0944c.1029.1678.2567.2973.4384.369.1818.0717.3815.0818.5694.0286.1878-.0531.3536-.1665.4723-.3232.1187-.1567.1841-.3482.1862-.5458V17.1133h-3.7901v15.0534L53.5137 19.809c-1.0023-1.7358-2.9034-2.8322-4.9272-2.8322-3.1693 0-5.7457 2.6045-5.7457 5.8146v9.3761l-7.09-12.3578c-1.0051-1.7351-2.9062-2.8307-4.9278-2.8307-3.1694 0-5.7458 2.6044-5.7458 5.8146v15.404c.0022.5604-.4142 1.049-1.02 1.0504h-5.845c-1.7252 0-3.3797-.6941-4.5996-1.9297-1.2199-1.2355-1.9052-2.9113-1.9052-4.6587 0-1.7473.6853-3.4231 1.9052-4.6587 1.2199-1.2355 2.8744-1.9297 4.5996-1.9297h4.8959v-3.8381H18.171c-5.6641 0-10.28202 4.6701-10.28202 10.4272ZM65.6549 17.1148V42.405c-.0006.5804-.2285 1.1369-.6337 1.5473-.4052.4105-.9546.6413-1.5277.6419-.375.0005-.7436-.098-1.0696-.2859-.3259-.1879-.5978-.4586-.7889-.7854L49.5654 22.4271c-.1028-.1678-.2566-.2973-.4384-.369-.1817-.0717-.3815-.0818-.5693-.0286-.1879.0531-.3536.1665-.4724.3232-.1187.1567-.184.3482-.1861.5458V42.405c-.0006.5804-.2285 1.1369-.6337 1.5473-.4052.4105-.9547.6413-1.5277.6419-.3758.0005-.7451-.0987-1.0712-.2878-.3261-.1891-.5976-.4614-.7873-.7899L31.7998 22.4271c-.154-.2658-.4554-.431-.7683-.431-.2379.0007-.4659.0968-.6342.2672-.1682.1704-.2631.4013-.2638.6423v19.0999c0 1.2573-1.091 2.3616-2.3352 2.3616h-9.6152c-3.0645-.003-6.0026-1.2374-8.1696-3.4322-2.16688-2.1948-3.38557-5.1707-3.38858-8.2746.00301-3.1039 1.2217-6.0798 3.38858-8.2745 2.167-2.1948 5.1051-3.4292 8.1696-3.4322h4.937v-3.8388h-4.9243c-8.47669 0-15.34888 6.9598-15.34888 15.5463 0 8.5864 6.86509 15.5463 15.34888 15.5463h9.7082c3.6773.0021 6.0423-2.1806 6.0295-6.2062v-8.8674l7.0899 12.3577c1.0023 1.7359 2.9034 2.8322 4.9272 2.8322 3.1694 0 5.7457-2.6044 5.7457-5.8138v-9.3761l7.09 12.3577c1.003 1.7359 2.9041 2.8322 4.9271 2.8322 3.1694 0 5.7458-2.6044 5.7458-5.8138V17.1148h-3.8043Z" fill="#fff"/></svg>