<svg width="104" height="64" fill="none" xmlns="http://www.w3.org/2000/svg"><path d="M25.3575 30.9384H13.3186v3.5572h8.5315c-.4266 5.0274-4.5975 7.1617-8.5315 7.1617-5.02409 0-9.43203-3.984-9.43203-9.5332 0-5.4069 4.17095-9.5807 9.43203-9.5807 4.0288 0 6.446 2.5612 6.446 2.5612l2.5121-2.6086s-3.223-3.5572-9.0529-3.5572C5.78246 18.9863 0 25.2943 0 32.0767c0 6.6875 5.40328 13.1852 13.4134 13.1852 7.0148 0 12.1811-4.8377 12.1811-11.9521 0-1.5177-.237-2.3714-.237-2.3714Zm9.8586-2.5612c-4.9293 0-8.4841 3.8418-8.4841 8.395 0 4.5531 3.4126 8.4897 8.5315 8.4897 4.5975 0 8.3893-3.5571 8.3893-8.3949.0474-5.644-4.3605-8.4898-8.4367-8.4898Zm.0474 3.32c2.4173 0 4.7397 1.9446 4.7397 5.1224 0 3.0829-2.275 5.1223-4.7397 5.1223-2.7016 0-4.8345-2.1343-4.8345-5.1223 0-2.9406 2.1329-5.1224 4.8345-5.1224Zm18.3901-3.32c-4.9293 0-8.4841 3.8418-8.4841 8.395 0 4.5531 3.4126 8.4897 8.5315 8.4897 4.5975 0 8.3893-3.5571 8.3893-8.3949.0474-5.644-4.3605-8.4898-8.4367-8.4898Zm.0474 3.32c2.4173 0 4.7397 1.9446 4.7397 5.1224 0 3.0829-2.275 5.1223-4.7397 5.1223-2.7016 0-4.8345-2.1343-4.8345-5.1223.0474-2.9406 2.1329-5.1224 4.8345-5.1224Zm18.0583-3.32c-4.5501 0-8.1049 3.9841-8.1049 8.4424 0 5.0749 4.1236 8.4423 8.0102 8.4423 2.4172 0 3.6969-.9485 4.6449-2.0394v1.66c0 2.8932-1.7537 4.6481-4.4554 4.6481-2.5594 0-3.8865-1.8972-4.3131-2.9881l-3.223 1.3755c1.1375 2.4189 3.46 4.98 7.5835 4.98 4.5028 0 7.9628-2.8457 7.9628-8.8218V28.8989h-3.5548v1.4229c-1.0902-1.1857-2.5595-1.9446-4.5502-1.9446Zm.3318 3.32c2.2277 0 4.5028 1.8972 4.5028 5.1224 0 3.32-2.2751 5.1223-4.5502 5.1223-2.4172 0-4.6449-1.9446-4.6449-5.0749-.0474-3.2726 2.3225-5.1698 4.6923-5.1698Zm23.4616-3.3674c-4.2657 0-7.8679 3.4149-7.8679 8.4424 0 5.312 3.9814 8.4897 8.2945 8.4897 3.5548 0 5.7827-1.9445 7.0617-3.6994l-2.938-1.9446c-.7585 1.1857-2.0382 2.324-4.1237 2.324-2.3698 0-3.46-1.2806-4.1235-2.5612l11.3282-4.6954-.569-1.3755c-1.138-2.7034-3.6971-4.98-7.0623-4.98Zm.1422 3.2726c1.5641 0 2.6543.8063 3.1283 1.8023l-7.5362 3.1777c-.3318-2.4663 1.9907-4.98 4.4079-4.98Zm-13.366 13.1378h3.697V19.8874h-3.697v24.8528Z" fill="#fff"/></svg>