<svg width="84" height="50" fill="none" xmlns="http://www.w3.org/2000/svg"><path fill-rule="evenodd" clip-rule="evenodd" d="M22.3266 13.0747h3.7671v23.2577h-3.7671V13.0747Zm16.8703 15.8841c0 3.6033-2.9481 3.9309-3.9308 3.9309-2.293 0-2.6206-2.1292-2.6206-3.2757v-9.0083h-3.7671v8.8445c0 2.1292.6551 4.0946 1.9654 5.2411 1.1465 1.1465 2.6206 1.6379 4.4223 1.6379 1.3102 0 2.9481-.3276 3.9308-1.3103v1.3103h3.7671V20.6057h-3.7671v8.3531Zm7.3703-14.0851h3.7671v5.7326h2.7844v3.6033h-2.7844v12.1202h-3.7671V24.2096h-2.7843v-3.6033h2.7843v-5.7326Zm18.3443 16.7086c-.8189.6552-1.9654 1.1465-3.1119 1.1465-2.6206 0-4.4222-1.9654-4.4222-4.586 0-2.6206 1.8016-4.4222 4.4222-4.4222 1.1465 0 2.293.3275 3.1119 1.1465l.4914.4913 2.6206-2.4568-.6552-.4913c-1.4741-1.3103-3.4395-2.1293-5.5687-2.1293-4.586 0-8.0255 3.4396-8.0255 8.0256s3.4395 8.0255 8.0255 8.0255c2.1292 0 4.0946-.8189 5.5687-2.1292l.6552-.4914-2.6206-2.6206-.4914.4914Zm12.2836-11.301c1.8017 0 2.9482.4914 4.0947 1.6379 1.1465 1.1465 1.6378 3.1119 1.6378 5.2412v9.0082h-3.767v-9.172c0-.0688.0005-.1411.0012-.2163v-.0001c.0096-1.1781.0249-3.0594-2.1305-3.0594-.9827 0-3.4395.3276-3.4395 3.9309v8.6807h-3.7671V13.0747h3.7671v8.5169c.9827-.9827 2.293-1.3103 3.6033-1.3103ZM61.6353 30.9264c1.4473 0 2.6206-1.1733 2.6206-2.6206s-1.1733-2.6206-2.6206-2.6206-2.6206 1.1733-2.6206 2.6206 1.1733 2.6206 2.6206 2.6206Zm-49.9545 1.8023c2.1292 0 4.0946-.8189 5.4049-2.1292l.4914-.4913 2.4568 2.4568-.4914.4913c-1.9654 2.1292-4.9136 3.2757-7.8617 3.2757-6.06012 0-10.64613-4.9135-10.64613-11.3012S5.62068 13.7295 11.8446 13.8933c2.9481 0 5.7325 1.1465 7.8617 3.2757l.4914.4914-2.4568 2.4568-.4914-.4914c-1.4741-1.4741-3.4395-2.293-5.4049-2.293-4.25849 0-7.20664 3.2757-7.20664 7.698 0 4.4222 2.94815 7.6979 7.04284 7.6979Z" fill="#fff"/></svg>