<svg width="103" height="49" fill="none" xmlns="http://www.w3.org/2000/svg"><g clip-path="url(#a)"><path fill-rule="evenodd" clip-rule="evenodd" d="M17.0153 13.7154c0-1.7438 1.3421-3.1475 3.0092-3.1475 1.667 0 3.0091 1.4037 3.0091 3.1475v7.7476c0 1.7438-1.3421 3.1476-3.0091 3.1476-1.6671 0-3.0092-1.4038-3.0092-3.1476v-7.7476Zm39.5572 20.7401-2.7547-.005-.0011.0001c-.2899-.0101-.4364-.1443-.4684-.4203-.032-.2761-.1316-14.859.0165-21.1843.0005-.1122.0808-.2089.1926-.232.6063-.1543 2.4981-.1757 3.1619-.0878.1468.0187.2399.0978.2488.3111.1046 2.4527.1762 17.9938.0103 21.2581-.0022.0502-.0145.0994-.0362.1448-.0217.0453-.0522.0858-.0899.1191-.0769.0678-.1775.1024-.2798.0962ZM45.2472 18.9177c-3.855 0-5.974 1.9949-5.974 4.8528l.0235-.0023c0 2.9645 2.4125 3.9354 5.4122 4.4911 1.8664.3487 3.0472.8293 3.0636 1.6537.0193.9359-.8819 1.4903-2.3717 1.5254l-.3866-.0024c-1.6672-.0553-3.0917-.9096-3.9649-1.4428-.249-.1531-.7302-.1144-.9128.1304-.3282.3765-.7442 1.0939-.992 1.7188-.2156.4842.1878.8882.2235.9183 1.0594.8995 3.0352 1.823 5.8207 1.8781 4.2124.0739 6.3824-2.3361 6.3824-5.002 0-3.1388-2.3461-4.0334-5.4506-4.5563-1.6685-.2802-3.0446-.6314-3.0192-1.6049.0031-.1457.0347-.2922.0933-.4391.2911-.7388 1.1131-1.0751 2.0986-1.0965.2909-.0062.5781.0087.8526.0376 1.0615.1111 2.2268.6927 2.9754 1.0664l.0882.044c.2042.1029.6037.1394.7607-.1455l.849-1.7451c.129-.2977.0213-.6435-.2554-.8193-1.0428-.7227-2.9678-1.4604-5.3165-1.4604Zm17.1847 11.1394c.0562-1.6248 1.9952-2.193 4.1103-2.2206l-.0003.0013c.5667.0225.8999.0803 1.3493.2658.0907.0367.2961.232.2986.3326.0103.4804-.0152 1.6031-.194 1.9043-.4813.8094-1.574 1.4203-3.0061 1.5557-1.4946.0827-2.5578-.5508-2.5578-1.8391Zm3.1489-10.9157c-3.1404-.0715-5.087 1.2821-6.0763 2.1515l-.0048-.0248c-.1277.1129-.2274.2924-.1571.5081s.9842 1.5635 1.3467 2.0249c.0742.094.3025.1554.4494.0715.0651-.0374.1398-.0813.2228-.1302h.0001c.7112-.4182 2.0317-1.1947 3.1496-1.2811.3248-.0231.651-.0146.974.0251 1.5701.1918 2.3167.9007 2.5083 1.7814.0764.3463.0943 1.0752.0893 1.4577-.0025.1156-.1724.1631-.2553.1306-1.2996-.5081-3.0176-.7063-4.5418-.4831-2.3794.3489-4.5455 1.8304-4.5532 4.8325-.0076 2.932 2.5452 4.4123 5.106 4.4123 1.6851 0 3.2703-.5019 4.2379-1.5056.0385-.0251.1877-.0301.1915.1254l.0217.7753c.0051.1868.0473.3636.411.3812l2.9693-.0063c.0445.0078.0902.0049.1334-.0084.0431-.0134.0825-.0369.1147-.0686.0648-.064.0937-.1552.0773-.2442.0355-1.3023.1732-6.531.0902-8.4054-.2028-4.5351-2.3817-6.4358-6.5047-6.5198Zm15.6049-.0266c-4.8214.0326-7.7904 3.5653-7.7649 7.7531l-.0114-.0151c.0243 4.2027 2.6206 7.8207 7.8541 7.7832 2.4995-.0138 4.3886-1.0363 5.3665-2.253.0856-.1055.2616-.369.0254-.6376-.3612-.4727-1.0109-1.1754-1.464-1.6307-.2311-.1782-.4406-.2633-.6422-.0903-.6318.5708-1.829 1.2682-3.0636 1.2382-2.3741-.054-4.0158-1.5682-4.0336-4.3282-.0204-2.8744 1.708-4.4375 4.0261-4.4375 1.2777 0 2.577.5472 3.2601.995.0342.0225.0679.0459.1009.0689.2034.1418.3847.2681.5526.0567.5122-.6689.9658-1.3808 1.3556-2.1278.0549-.1493.0933-.2735.0168-.4216-.3856-.6323-2.571-1.972-5.5784-1.9533Zm20.8773 14.781c-.806.1805-3.4276.537-3.6727.5547l-.0089.0219c-.1224.0038-.2835-.0038-.4213-.197l-1.8292-2.5979c-.3778-.5503-.7671-1.1255-1.1253-1.6548l-.0002-.0004c-.5855-.8654-1.0879-1.6079-1.3216-1.9177-.0765-.1027-.1965-.1078-.2731-.0351l-1.3301 1.3702c-.064.0527-.1023.2508-.1023.2508l-.0562 4.4664s-.0461.2595-.4212.2595c-.7635.0139-2.3959.0163-3.0559-.0212-.1653-.0118-.2939-.1459-.2962-.3087-.0919-2.3285-.3089-18.97-.1558-21.2369.0388-.1862.189-.3302.3791-.3638l3.0062.0064c.1291.006.3588.1477.3638.336l.1237 12.0498c.0012.2696.1109.3112.3025.1231l5.7568-5.6143c.2631-.2508.6078-.2722.8937-.2132.6781.1418 1.8702.4116 2.6082.6273.38.1118.651.3187.201.7954l-4.9856 4.913c-.102.1003-.1073.2256-.0128.3512l2.7253 3.4337 2.8681 4.2278c.11.1643.039.3286-.16.3738ZM8.99109 29.7652c0-1.7438 1.34211-3.1475 3.00911-3.1475 1.6671 0 3.0092 1.4037 3.0092 3.1475v7.7476c0 1.7437-1.3421 3.1476-3.0092 3.1476-1.667 0-3.00911-1.4039-3.00911-3.1476v-7.7476Zm8.02421-.1384c0 1.6671 1.4038 3.0092 3.1475 3.0092h7.7478c1.7438 0 3.1475-1.3421 3.1475-3.0092 0-1.667-1.4038-3.0091-3.1475-3.0091h-7.7478c-1.7438 0-3.1475 1.3421-3.1475 3.0091ZM.966797 21.6022c0 1.667 1.403763 3.0091 3.147563 3.0091h7.74754c1.7438 0 3.1476-1.3421 3.1476-3.0091 0-1.6671-1.4038-3.0092-3.1476-3.0092H4.11436c-1.7438 0-3.147563 1.3421-3.147563 3.0092ZM17.0153 37.6508c0 1.667 1.3421 3.0091 3.0092 3.0091 1.667 0 3.0091-1.3421 3.0091-3.0091 0-1.6671-1.3421-3.0092-3.0091-3.0092h-3.0092v3.0092Zm8.0246-13.0395h3.0092c1.667 0 3.0091-1.3421 3.0091-3.0091 0-1.6671-1.3421-3.0092-3.0091-3.0092-1.6671 0-3.0092 1.3421-3.0092 3.0092v3.0091ZM3.97594 26.6177h3.00915v3.0091c0 1.6671-1.34208 3.0092-3.00915 3.0092-1.66706 0-3.009143-1.3421-3.009143-3.0092 0-1.667 1.342083-3.0091 3.009143-3.0091ZM15.0094 16.5862V13.577c0-1.667-1.3421-3.0091-3.0092-3.0091-1.667 0-3.00911 1.3421-3.00911 3.0091 0 1.6671 1.34211 3.0092 3.00911 3.0092h3.0092Z" fill="#fff"/></g><defs><clipPath id="a"><path fill="#fff" transform="translate(.464844)" d="M0 0h102.311v48.1464H0z"/></clipPath></defs></svg>